<svg id="Capa_1" data-name="Capa 1" xmlns="http://www.w3.org/2000/svg" xmlns:xlink="http://www.w3.org/1999/xlink" viewBox="0 0 72 72"><defs><style>.cls-1,.cls-4{fill:none;}.cls-1{clip-rule:evenodd;}.cls-2{fill:#ff5d8e;}.cls-3{clip-path:url(#clip-path);}.cls-4{stroke:#98123a;stroke-linecap:round;stroke-linejoin:round;stroke-width:2px;}</style><clipPath id="clip-path"><path class="cls-1" d="M-55.07,127.77c-17.38,15.83-29.36,27.56-23.37,54.09s21.55,26.53,72.82,26.53,122.62,6.18,134.07-5.67,19.51-58.82,3.81-66.88S-37.68,111.94-55.07,127.77Z"/></clipPath></defs><title>Iconos_STROKE_V2</title><path class="cls-2" d="M7.12,15.5A35.63,35.63,0,0,0,1.64,36.63C2.87,61.88,12.29,70.5,35.5,70.5c25,0,35-14,35-36s-4-33-33-33C21,1.5,12,8,7.12,15.5Z"/><circle class="cls-4" cx="17" cy="43" r="2"/><path class="cls-4" d="M12,50.86V53H22V50.86h0A2.82,2.82,0,0,0,19.25,48h-4.5A2.82,2.82,0,0,0,12,50.86h0"/><circle class="cls-4" cx="33" cy="39" r="3"/><path class="cls-4" d="M27,49.43V53H39V49.43h0A3.37,3.37,0,0,0,35.7,46H30.3A3.37,3.37,0,0,0,27,49.43h0"/><line class="cls-4" x1="47" y1="30" x2="57" y2="30"/><path class="cls-4" d="M55,34v3a3,3,0,0,1-3,3h0a3,3,0,0,1-3-3V34"/><path class="cls-4" d="M55,30H49v3.28a6.61,6.61,0,0,0,6,0Z"/><path class="cls-4" d="M44,48.94V53H60V48.94h0C60,46.38,56.88,44,54.56,44H49.44C47.12,44,44,46.38,44,48.94"/><line class="cls-4" x1="17" y1="33" x2="50" y2="16"/><polyline class="cls-4" points="48 22 50 16 44 14"/></svg>