<svg id="Capa_1" data-name="Capa 1" xmlns="http://www.w3.org/2000/svg" xmlns:xlink="http://www.w3.org/1999/xlink" viewBox="0 0 72 72"><defs><style>.cls-1{fill:none;}.cls-1,.cls-2,.cls-3{clip-rule:evenodd;}.cls-2,.cls-7,.cls-9{fill:#ff5d8e;}.cls-11,.cls-13,.cls-3{fill:#7282ff;}.cls-4{fill:#b17de4;}.cls-5{fill:#731aca;}.cls-6{clip-path:url(#clip-path);}.cls-11,.cls-7{fill-rule:evenodd;}.cls-8{clip-path:url(#clip-path-2);}.cls-10{clip-path:url(#clip-path-3);}.cls-12{clip-path:url(#clip-path-4);}.cls-14{clip-path:url(#clip-path-5);}.cls-15{clip-path:url(#clip-path-6);}.cls-16{clip-path:url(#clip-path-7);}.cls-17{clip-path:url(#clip-path-8);}.cls-18{clip-path:url(#clip-path-9);}.cls-19{clip-path:url(#clip-path-10);}</style><clipPath id="clip-path"><path class="cls-1" d="M-135.07,321.77c-17.38,15.83-29.36,27.56-23.37,54.09s21.55,26.53,72.82,26.53S37,408.57,48.45,396.72,68,337.9,52.26,329.84-117.68,305.94-135.07,321.77Z"/></clipPath><clipPath id="clip-path-2"><path class="cls-2" d="M92.93,321.77c-17.38,15.83-29.36,27.56-23.37,54.09s21.55,26.53,72.82,26.53,122.62,6.18,134.07-5.67,19.51-58.82,3.81-66.88S110.32,305.94,92.93,321.77Z"/></clipPath><clipPath id="clip-path-3"><path class="cls-1" d="M-135.07,422.77c-17.38,15.83-29.36,27.56-23.37,54.09s21.55,26.53,72.82,26.53S37,509.57,48.45,497.72,68,438.9,52.26,430.84-117.68,406.94-135.07,422.77Z"/></clipPath><clipPath id="clip-path-4"><path class="cls-3" d="M92.93,422.77c-17.38,15.83-29.36,27.56-23.37,54.09s21.55,26.53,72.82,26.53,122.62,6.18,134.07-5.67,19.51-58.82,3.81-66.88S110.32,406.94,92.93,422.77Z"/></clipPath><clipPath id="clip-path-5"><path class="cls-1" d="M104.85-57.26A24.78,24.78,0,0,0,101-42.56C101.89-25,108.45-19,124.62-19,142-19,149-28.74,149-44s-2.79-23-23-23c-11.49,0-17.76,4.52-21.16,9.74"/></clipPath><clipPath id="clip-path-6"><path class="cls-1" d="M.85-57.26A24.78,24.78,0,0,0-3-42.56C-2.11-25,4.45-19,20.62-19,38-19,45-28.74,45-44S42.21-67,22-67C10.52-67,4.25-62.48.85-57.26"/></clipPath><clipPath id="clip-path-7"><path class="cls-1" d="M-51.15-57.26A24.78,24.78,0,0,0-55-42.56C-54.11-25-47.55-19-31.38-19-14-19-7-28.74-7-44S-9.79-67-30-67c-11.49,0-17.76,4.52-21.16,9.74"/></clipPath><clipPath id="clip-path-8"><path class="cls-1" d="M-103.15-57.26A24.78,24.78,0,0,0-107-42.56C-106.11-25-99.55-19-83.38-19-66-19-59-28.74-59-44s-2.79-23-23-23c-11.49,0-17.76,4.52-21.16,9.74"/></clipPath><clipPath id="clip-path-9"><path class="cls-1" d="M-155.15-57.26A24.78,24.78,0,0,0-159-42.56C-158.11-25-151.55-19-135.38-19-118-19-111-28.74-111-44s-2.79-23-23-23c-11.49,0-17.76,4.52-21.16,9.74"/></clipPath><clipPath id="clip-path-10"><path class="cls-1" d="M52.85-57.26A24.78,24.78,0,0,0,49-42.56C49.89-25,56.45-19,72.62-19,90-19,97-28.74,97-44S94.21-67,74-67c-11.49,0-17.76,4.52-21.16,9.74"/></clipPath></defs><title>Iconos_FINAL_V2</title><path class="cls-4" d="M7.12,15.5A35.63,35.63,0,0,0,1.64,36.63C2.87,61.88,12.29,70.5,35.5,70.5c25,0,35-14,35-36s-4-33-33-33C21,1.5,12,8,7.12,15.5Z"/><path class="cls-5" d="M25,25a1,1,0,0,0,1-1c0-2.81,1-4.64,5.53-4.95l-1.24,1.24a1,1,0,0,0,0,1.42,1,1,0,0,0,1.42,0l3-3a1,1,0,0,0,.29-.78,1,1,0,0,0-.4-.73l-4-3a1,1,0,0,0-1.2,1.6l1.71,1.28C26.22,17.5,24,19.68,24,24A1,1,0,0,0,25,25Z"/><path class="cls-5" d="M35.71,35.29l-6-6a1,1,0,0,0-.32-.21A1.09,1.09,0,0,0,29,29H15a1,1,0,0,0-1,1V57a1,1,0,0,0,1,1H35a1,1,0,0,0,1-1V36a1,1,0,0,0-.08-.38A.93.93,0,0,0,35.71,35.29ZM30,32.41,32.59,35H30ZM16,56V31H28v5a1,1,0,0,0,1,1h5V56Z"/><path class="cls-5" d="M28,43H20a1,1,0,0,0,0,2h8a1,1,0,0,0,0-2Z"/><path class="cls-5" d="M20,49h6a1,1,0,0,0,0-2H20a1,1,0,0,0,0,2Z"/><path class="cls-5" d="M28,51H20a1,1,0,0,0,0,2h8a1,1,0,0,0,0-2Z"/><path class="cls-5" d="M22.27,40a3.19,3.19,0,0,0,2.41-1.13,1,1,0,0,0-1.52-1.3,1.17,1.17,0,0,1-.89.43,1.52,1.52,0,0,1,0-3,1.21,1.21,0,0,1,.94.49,1,1,0,1,0,1.58-1.22A3.16,3.16,0,0,0,22.27,33a3.51,3.51,0,0,0,0,7Z"/><path class="cls-5" d="M60.92,21.62a.93.93,0,0,0-.21-.33l-6-6a1,1,0,0,0-.32-.21A1.09,1.09,0,0,0,54,15H40a1,1,0,0,0-1,1V43a1,1,0,0,0,1,1H60a1,1,0,0,0,1-1V22A1,1,0,0,0,60.92,21.62ZM55,18.41,57.59,21H55ZM41,42V17H53v5a1,1,0,0,0,1,1h5V42Z"/><path class="cls-5" d="M53,29H45a1,1,0,0,0,0,2h8a1,1,0,0,0,0-2Z"/><path class="cls-5" d="M45,35h6a1,1,0,0,0,0-2H45a1,1,0,0,0,0,2Z"/><path class="cls-5" d="M53,37H45a1,1,0,0,0,0,2h8a1,1,0,0,0,0-2Z"/><path class="cls-5" d="M44.55,26.89a1,1,0,0,0,1.34-.44l.23-.45h3.76l.23.45A1,1,0,0,0,51,27a.93.93,0,0,0,.45-.11,1,1,0,0,0,.44-1.34l-3-6a1,1,0,0,0-1.78,0l-3,6A1,1,0,0,0,44.55,26.89ZM48,22.24,48.88,24H47.12Z"/><path class="cls-7" d="M92.93,321.77c-17.38,15.83-29.36,27.56-23.37,54.09s21.55,26.53,72.82,26.53,122.62,6.18,134.07-5.67,19.51-58.82,3.81-66.88S110.32,305.94,92.93,321.77Z"/><g class="cls-8"><rect class="cls-9" x="-6.33" y="-3964.26" width="1278.18" height="6210.61"/></g><path class="cls-11" d="M92.93,422.77c-17.38,15.83-29.36,27.56-23.37,54.09s21.55,26.53,72.82,26.53,122.62,6.18,134.07-5.67,19.51-58.82,3.81-66.88S110.32,406.94,92.93,422.77Z"/><g class="cls-12"><rect class="cls-13" x="-6.33" y="-3863.26" width="1278.18" height="6210.61"/></g></svg>