<svg enable-background="new 0 0 223 91" height="91" viewBox="0 0 223 91" width="223" xmlns="http://www.w3.org/2000/svg" xmlns:xlink="http://www.w3.org/1999/xlink"><clipPath id="a"><path d="m25.9 7.8c-17.3 15.8-29.3 27.5-23.3 54.1s21.6 26.5 72.8 26.5 122.6 6.2 134.1-5.7 19.6-58.8 3.8-66.9-170-23.9-187.4-8z"/></clipPath><g clip-path="url(#a)"><path d="m-4-4h231v99h-231z" fill="#ffe075"/><g fill="none" stroke="#937200" stroke-linecap="round" stroke-linejoin="round" stroke-width="2"><path d="m45.8 23h33.5v44.4h-33.5z" transform="matrix(.9855 -.1695 .1695 .9855 -6.7561 11.2593)"/><path d="m76.1 22 4.1 1.5 7.5 43.7-32.6 5.6c-1.6.3-5-1.2-5.3-2.8"/><path d="m46.5 15.5h6.7v9.3h-6.7z" transform="matrix(.9855 -.1695 .1695 .9855 -2.6933 8.7487)"/><path d="m47.7 20.2 1-.2"/><circle cx="60.4" cy="53.7" r="9"/><path d="m54.9 53.6c-.2-1.2.6-2.3 1.8-2.5s2.3.6 2.5 1.8"/><path d="m61.3 52.5c-.2-1.2.6-2.3 1.8-2.5s2.3.6 2.5 1.8"/><path d="m61.3 41.4c.1-4 3.3-7.2 7.3-7.1s7.2 3.3 7.1 7.3c0 3-1.9 5.6-4.7 6.7"/><path d="m63.5 34-2.4-4.8-1.9 4-5.3-3.3.8 4.6-6.7.6 3.8 4.1-3.8 2.2 5.1 1.8-3.2 3.1 2.3.7"/><path d="m56.5 57.2c2-.3 8-1.9 8-1.9"/><path d="m64.9 39 1 2.5"/><path d="m67.8 37.5 1 2.9"/><ellipse cx="69" cy="44.3" rx="1.6" ry="1.3" transform="matrix(.9855 -.1695 .1695 .9855 -6.5194 12.3335)"/><path d="m34.8 50.8c-.2-2.2-3.3-3.4-6-3-1.8.2-3.4 1.3-4.3 2.9-1.2-1.2-3-1.8-4.7-1.5-2.5.3-4.4 2.4-4.5 4.9v.3.2.1.2s0 .1 0 .2 0 .1 0 .1c.7 3.4 2.6 6.4 5.4 8.5.9.9 2.1 1.3 3.4 1.1 1.2-.1 2.3-.8 2.9-1.9.9.8 2.1 1.2 3.2 1 1.8-.4 3.3-1.7 4-3.4.8-3.2 1-6.5.6-9.7z"/><path d="m21.3 44.5c1.4 1.4 2.4 3.3 2.7 5.2"/><path d="m28.5 37.7c-3.5 1.8-4.9 9-4.9 9s4.9-.8 5.7-4-.8-4.9-.8-5"/><path d="m20.9 52.6c-1 .4-1.5 1.5-1.2 2.5v.1"/><path d="m137.3 28.8h48.6v37.1h-48.6z" transform="matrix(.2183 -.9759 .9759 .2183 80.0844 194.7968)"/><path d="m173.3 30.1 1.5-6.8c.2-1.1 1.8-1.7 3.5-1.3 1.7.4 2.9 1.6 2.6 2.7l-.4 2"/><path d="m177.7 24.9-1.5 6.8c-.1.6-.9 1-1.8.8-.9-.2-1.4-.9-1.3-1.5l1-4.5"/><path d="m154.9 39.7 5.8-8.2 1.8 9.9"/><path d="m156.9 37.8 4.6 1"/><path d="m168.1 39.5 3.1.7c.6.1 1 .8.9 1.4l-.2.8c-.1.6-.8 1-1.4.9l-3.1-.7c-.6-.1-1-.8-.9-1.4l.2-.8c.2-.7.8-1 1.4-.9z"/><path d="m168.4 36.4 3 .7c.8.2 1.4 1 1.2 1.8l-.7 3"/><path d="m153.1 49.4-2 9.1"/><path d="m151.1 58.5 3.8.8c1.3.3 2.5-.5 2.8-1.8.3-1.3-.5-2.5-1.8-2.8l-3.8-.8"/><path d="m152.1 54 3.3.7c1.2.2 2.3-.6 2.5-1.8.3-1.2-.3-2.4-1.5-2.7l-3.3-.8"/><path d="m163.5 58.1 3.1.7c.6.1 1 .8.9 1.4l-.2.8c-.1.6-.8 1-1.4.9l-3.1-.7c-.6-.1-1-.8-.9-1.4l.2-.8c.2-.6.8-1 1.4-.9z"/><path d="m163.1 54.8-1.1 4.6"/><path d="m202.5 62.8c-1.1.2-1.5-1.1-1.7-2.7l-3.1-17c-.2-1.6.5-3 1.6-3.1 1.1-.2 2.2 1 2.4 2.6l1.8 17.2c.2 1.6.1 2.9-1 3z"/><path d="m198.4 29.4c-2.2 3.7-3.2 11.2.8 10.6 2.6-.4 2-3.9.6-5.5-1.6-1.7-1.4-5.1-1.4-5.1z"/><path d="m121.7 15.6.9 3.6-20.1 5.7-.9-3.6z"/><path d="m121.7 15.6.9 3.6 8.4-4.2z"/><path d="m97.2 21.9h4.7v3.7h-4.7z" transform="matrix(.9691 -.2467 .2467 .9691 -2.7757 25.2788)"/><path d="m94.2 25.1c-.3-1 .4-2 1.4-2.3l1.2-.3.9 3.6-1.2.3c-1 .3-2-.3-2.3-1.3z"/><path d="m119.3 54-2.6 15.7c-.6 3.6-4 6.1-7.7 5.5"/><path d="m120.2 46.9-3.6 6.1 4.9.8z"/><path d="m117.4 57.6 2.5.4"/><path d="m116.6 61.7 2.5.4"/><path d="m115.8 65.8 2.5.4"/><path d="m115.4 69.9 2.4.4"/><path d="m120.8 44.7c.6-3.2 2.4-6 5.2-7.7h.4c1.8 1.3 2.7 3.5 2.4 5.7l-4.8 29.1c-.5 3.1-3.5 5.3-6.7 4.8l-11.3-1.9c-3.2-.5-5.3-3.5-4.8-6.7l4.9-29.1c.5-3.1 3.5-5.3 6.7-4.8l.4.1c5.1 1.3 8.3 6.2 7.6 11.4l-.2 1.4"/><path d="m113 34s11 1 13 3"/></g></g></svg>