<svg enable-background="new 0 0 223 91" height="91" viewBox="0 0 223 91" width="223" xmlns="http://www.w3.org/2000/svg" xmlns:xlink="http://www.w3.org/1999/xlink"><clipPath id="a"><path d="m25.9 7.8c-17.3 15.8-29.3 27.5-23.3 54.1s21.6 26.5 72.8 26.5 122.6 6.2 134.1-5.7 19.6-58.8 3.8-66.9-170-23.9-187.4-8z"/></clipPath><g clip-path="url(#a)"><path d="m-73.3-4278.3h1278.2v6210.6h-1278.2z" fill="#ff5d8e"/><g fill="none" stroke="#98123a" stroke-linecap="round" stroke-linejoin="round" stroke-width="2"><path d="m140.9 62.7-1.9-18.5-.9-8.2-.8-10 20.2-3.8 13.6-2.6 1.9 4.4 4 9.6 6.4 15.2-37.6 7.1c-3 .5-5.1 3.2-5 6.2 0 .3 0 .6.1.9z"/><path d="m157 66.2-10 1.9c-.9.2-1.8 0-2.5-.4-1.8-.9-3.1-2.7-3.5-4.7-.1-.3-.1-.6-.1-.9-.1-3 2-5.7 5-6.2l37-7c-1.8 2.6-1.6 9.3 2.3 12l-20.2 3.8"/><path d="m109.7 43.9 9.1 2.1-5.3 2.6v4.4l-8.5-3.8"/><ellipse cx="81.9" cy="66" rx="3.9" ry="5.9" transform="matrix(.8209 -.5711 .5711 .8209 -23.0132 58.5846)"/><path d="m82.7 61.4c-2.1-1.6-5.8-1-5.8-1l36.9-39.1-.1.1c1.8-1.2 4.7-.1 6.6 2.6s1.9 5.9.1 7.1l.5-.5-35.8 40.3"/><path d="m100.9 35.1c2.9 0 7.2 2.3 8.9 8"/><path d="m96.2 40.4c2.9 0 7.2 2.3 8.9 8"/><path d="m165.9 72.4-4-3.1-2.6 4.4-2.5-13.6 6.5-1.3z"/><path d="m74.6 12.3.3 6.2"/><path d="m79.4 20.5 4.5-6.2"/><path d="m83.3 23.3 5.9-1.6"/><path d="m31.4 46.7 2.1 6.5c1.5 4.8 10.9 6 20.8 2.8s16.7-9.8 15.2-14.5l-2.1-6.5"/><path d="m36.4 68.2.5 7.7 3.6-1.1z"/><circle cx="35.8" cy="66.3" r="1.9"/><path d="m20.9 46.1 29.6.7 23.4-18.7-29.7-.7z"/><path d="m41.5 36.2-12.3 10.1c-4 4-6.2 8.7-2.2 10.7 1.9 1 6.5 1 7.8 7"/><path d="m181.1 52.7-12.7 2.4"/><path d="m175.4 56.7-4.1.8"/><ellipse cx="156.5" cy="32.5" rx="10.5" ry="5.5" transform="matrix(.9883 -.1526 .1526 .9883 -3.1286 24.2688)"/><path d="m121 65-2 10 11-2z"/><path d="m200.2 40 1.8-13-10 2.6z"/></g></g></svg>