<?xml version="1.0" encoding="utf-8"?>
<svg version="1.1" id="Capa_1" xmlns="http://www.w3.org/2000/svg" xmlns:xlink="http://www.w3.org/1999/xlink" x="0px" y="0px"
	 width="223px" height="91px" viewBox="0 0 223 91" style="enable-background:new 0 0 223 91;" xml:space="preserve">
<style type="text/css">
	.st0{clip-path:url(#SVGID_2_);}
	.st1{fill:#B17DE4;}
	.st2{fill:#731ACA;}
</style>
<g>
	<defs>
		<path id="SVGID_1_" d="M25.9,7.8C8.6,23.6-3.4,35.3,2.6,61.9s21.6,26.5,72.8,26.5s122.6,6.2,134.1-5.7s19.6-58.8,3.8-66.9
			S43.3-8.1,25.9,7.8z"/>
	</defs>
	<clipPath id="SVGID_2_">
		<use xlink:href="#SVGID_1_"  style="overflow:visible;"/>
	</clipPath>
	<g class="st0">
		<g>
			<g>
				<rect x="-4" y="-4" class="st1" width="231" height="99"/>
			</g>
		</g>
		<path class="st2" d="M117,59.4c-1.8-1.5-4.1-2.3-6.4-2.1l0,0l-26.9,2.3c-4.8,0.3-8.5,4.5-8.2,9.3c0.2,2.4,1.2,4.5,3,6.1
			c1.8,1.5,4.1,2.3,6.4,2.1l2.2-0.2l5.7,5.3c0.2,0.2,0.4,0.3,0.7,0.3c0.1,0,0.3,0,0.4-0.1c0.4-0.2,0.6-0.6,0.6-1l-0.4-5.1l17.7-1.7
			c4.8-0.3,8.5-4.5,8.2-9.3C119.8,63.1,118.8,60.9,117,59.4z M116.4,70.5c-1.2,1.4-2.9,2.2-4.7,2.3l-18.8,1.8
			c-0.5,0.1-0.9,0.5-0.9,1.1l0.2,3.5l-4.1-3.9C88,75,87.7,74.9,87.5,75h-0.1l-2.7,0.2c-3.7,0.2-7-2.6-7.3-6.3
			c-0.3-3.7,2.6-7,6.3-7.3l26.9-2.3c3.7-0.3,7,2.5,7.3,6.3C118.1,67.3,117.5,69.1,116.4,70.5L116.4,70.5z"/>
		<path class="st2" d="M203.3,30c-2.3-2.9-5.7-4.7-9.4-5.1l-35.4-3.6c-7.7-0.8-14.5,4.8-15.3,12.5l-1.6,15.5
			c-0.8,7.7,4.8,14.5,12.4,15.3l27.7,2.8l10,8.2c0.3,0.3,0.7,0.3,1.1,0.1c0.4-0.2,0.6-0.5,0.6-0.9l-0.3-6.8c6.2-1,11-6.1,11.7-12.3
			l1.6-15.5C206.7,36.6,205.6,32.9,203.3,30z M204.4,40l-1.6,15.5c-0.6,5.7-5.1,10.2-10.8,10.7c-0.5,0-0.9,0.5-0.9,1l0.2,5.4l-8.5-7
			c-0.1-0.1-0.3-0.2-0.5-0.2l-28-2.9c-6.6-0.7-11.3-6.5-10.7-13.1l1.6-15.5c0.6-6.1,5.7-10.7,11.9-10.8c0.4,0,0.8,0,1.2,0.1
			l35.4,3.6C200.2,27.6,205,33.4,204.4,40L204.4,40z"/>
		<path class="st2" d="M47.7,21c-15.1,0-27.4,10.7-27.4,23.9c0,3.4,0.8,6.7,2.4,9.7c-4.3,4-4.7,10.7-2.2,14.3
			c0.2,0.3,0.5,0.4,0.8,0.4h0.1c0.4-0.1,0.7-0.3,0.8-0.7c0-0.1,1.7-5.4,6-7c5.4,4.7,12.3,7.2,19.5,7.1c15.1,0,27.4-10.7,27.4-23.9
			S62.8,21,47.7,21z M47.7,66.8c-6.8,0.1-13.4-2.4-18.5-6.9c-0.2-0.2-0.4-0.3-0.7-0.3c-0.1,0-0.2,0-0.3,0c-3.6,1-5.8,4.2-6.9,6.3
			c-1-3.8,0.3-7.8,3.3-10.3c0.4-0.3,0.5-0.8,0.2-1.3c-1.6-2.9-2.5-6.2-2.5-9.5C22.4,32.8,33.7,23,47.7,23s25.4,9.8,25.4,21.9
			S61.7,66.8,47.7,66.8z"/>
		<path class="st2" d="M131,35.5l-2.9-16.1c-0.9-5-5.8-8.4-10.8-7.5l-21.4,4l-9-4.9c-0.4-0.2-0.8-0.1-1.1,0.1
			c-0.3,0.3-0.4,0.7-0.3,1.1l2,5.7c-3.5,1.9-5.4,5.9-4.7,9.8l0,0l2.9,16.1c0.8,4.4,4.7,7.7,9.2,7.7c0.6,0,1.1-0.1,1.7-0.2l27-5.1
			C128.6,45.4,131.9,40.6,131,35.5z M123.1,44.4l-27,5.1c-4,0.7-7.8-1.9-8.5-5.9l-2.9-16.1l0,0c-0.6-3.3,1.2-6.6,4.3-8
			c0.5-0.2,0.7-0.7,0.6-1.2l-1.4-4.1l7.1,3.8c0.2,0.1,0.5,0.1,0.7,0.1l21.7-4.1c4-0.7,7.8,1.9,8.5,5.9l2.9,16.1
			C129.8,39.8,127.2,43.7,123.1,44.4C123.2,44.4,123.2,44.4,123.1,44.4L123.1,44.4z"/>
		<path class="st2" d="M127,62.4c0.2,0.4,0.5,0.6,0.9,0.6c0.1,0,0.3,0,0.4-0.1l5.6-2.6c0.5-0.2,0.7-0.8,0.5-1.3s-0.8-0.7-1.3-0.5
			l0,0l-5.6,2.6C127,61.3,126.8,61.9,127,62.4z"/>
		<path class="st2" d="M135.3,67.8l-7.5-1.8c-0.5-0.1-1.1,0.2-1.2,0.7c-0.1,0.5,0.2,1.1,0.7,1.2l7.5,1.9c0.1,0,0.2,0,0.2,0
			c0.6,0.1,1.1-0.3,1.1-0.9C136.3,68.4,135.9,67.9,135.3,67.8L135.3,67.8z"/>
		<path class="st2" d="M127.2,71c-0.4-0.4-1-0.5-1.4-0.1c-0.4,0.3-0.5,0.9-0.2,1.3l3.7,4.9c0.2,0.2,0.5,0.4,0.8,0.4
			c0.2,0,0.4-0.1,0.6-0.2c0.4-0.3,0.5-1,0.2-1.4L127.2,71z"/>
		<path class="st2" d="M47.1,30.8c-0.2-0.4-0.6-0.6-1-0.6c-0.4,0-0.8,0.3-0.9,0.7l-8.7,25.6c-0.2,0.5,0.1,1.1,0.6,1.3c0,0,0,0,0,0
			c0.1,0,0.2,0,0.3,0c0.4,0,0.9-0.3,1-0.7l2-6L54,50.2l0,0l2.7,5.6c0.2,0.5,0.8,0.8,1.3,0.6c0.5-0.2,0.8-0.8,0.6-1.3
			c0-0.1,0-0.1-0.1-0.2L47.1,30.8z M41.2,49.1l5.2-15.2l6.8,14.4L41.2,49.1z"/>
		<path class="st2" d="M119.8,24.5c-2.1,0.9-4.2,1.5-6.4,1.8c-0.2-0.7-0.7-1.2-1.4-1.4c-1.1-0.2-2.3,0.5-3.3,1.9
			c-0.4,0.6-1,0.9-1.6,1l0,0c-1-0.1-1.9-0.7-2.4-1.6c-0.6-0.9-1.6-1.4-2.6-1.5c-2.2-0.1-4.8,2-9,7.2c-0.4,0.4-0.3,1,0.1,1.4
			c0,0,0,0,0,0c0.2,0.1,0.4,0.2,0.6,0.2c0.3,0,0.6-0.1,0.8-0.4c1.4-1.8,5.3-6.5,7.4-6.5l0,0c0.4,0,0.8,0.3,1.1,0.7
			c1.5,2,3,2.4,4.1,2.4c1.3-0.1,2.5-0.8,3.2-1.9c0.3-0.5,0.7-0.9,1.2-1.1c0,0.1,0,0.1,0,0.2c0.1,0.4,0.3,0.8,0.7,1
			c1.5,0.8,5.8-0.7,8.3-1.6c0.5-0.2,0.7-0.8,0.5-1.3C120.8,24.5,120.2,24.3,119.8,24.5L119.8,24.5z"/>
		<path class="st2" d="M113.7,35.2l-1.5-0.4c-0.2-0.1-0.5,0-0.7,0.1c-1.2,0.6-2.3,1.3-3.4,2c-0.3,0.2-0.5,0.2-1.7-0.6
			c-0.3-0.2-0.6-0.5-1-0.7c-1.7-1-2.9,0-4.3,1.1c-0.8,0.7-1.7,1.3-2.7,1.9c-0.5,0.3-0.6,0.9-0.4,1.4c0.2,0.3,0.5,0.5,0.9,0.5
			c0.2,0,0.3-0.1,0.5-0.1c1-0.6,2-1.3,2.9-2.1c1.4-1.1,1.6-1.2,2-1s0.6,0.4,0.9,0.6c1.1,0.8,2.4,1.8,4,0.7c0.9-0.6,1.8-1.2,2.8-1.7
			l1.1,0.3c0.5,0.1,1.1-0.2,1.2-0.7C114.6,35.9,114.3,35.3,113.7,35.2C113.7,35.2,113.7,35.2,113.7,35.2z"/>
		<path class="st2" d="M87,65c-1.7,0-3,1.3-3,3s1.3,3,3,3s3-1.3,3-3S88.7,65,87,65z M87,69c-0.6,0-1-0.4-1-1s0.4-1,1-1s1,0.4,1,1
			S87.6,69,87,69z"/>
		<path class="st2" d="M97,64c-1.7,0-3,1.3-3,3s1.3,3,3,3s3-1.3,3-3S98.7,64,97,64z M97,68c-0.6,0-1-0.4-1-1s0.4-1,1-1s1,0.4,1,1
			S97.6,68,97,68z"/>
		<path class="st2" d="M107,63c-1.7,0-3,1.3-3,3s1.3,3,3,3s3-1.3,3-3S108.7,63,107,63z M107,67c-0.6,0-1-0.4-1-1s0.4-1,1-1
			s1,0.4,1,1S107.6,67,107,67z"/>
		<path class="st2" d="M179.2,31.5c-0.1,0-0.3,0-0.4,0c-0.1-0.1-0.2-0.1-0.4-0.1c-0.5-0.1-1,0.3-1.1,0.9c0,0,0,0,0,0
			c-0.1,0.6-0.1,1.3-0.2,2c-0.1,1.1-0.3,2.4-0.4,3.8l-16.5-1.7c-0.6-0.1-1,0.3-1.1,0.9c-0.1,0.6,0.3,1,0.9,1.1l0,0l16.5,1.7
			c-0.5,6.9,0,15.6,6.4,19.1l0,0c0.1,0.1,0.2,0.1,0.3,0.1h0.1c0.1,0,0.2,0,0.3-0.1h0.1c0.1,0,0.1-0.1,0.2-0.1h0.1
			c0.1-0.1,0.1-0.2,0.2-0.2l0,0c0.1-0.1,0.1-0.2,0.1-0.4c0.2-2,0.9-5.3,1.9-6c0.5-0.3,0.7-0.9,0.4-1.3c-0.3-0.5-0.9-0.7-1.3-0.4
			c-0.1,0.1-0.2,0.2-0.3,0.3c-1.4,1.1-2.1,3.9-2.4,5.8c-4.2-3.4-4.6-10.5-4.1-16.3l7.5,0.8h0.1c0.3,0,0.6-0.2,0.8-0.4
			c0.2-0.3,0.3-0.7,0.1-1C186.6,39,183.4,32,179.2,31.5z M178.6,38.4c0.1-1.4,0.3-2.7,0.4-3.8c0.1-0.4,0.1-0.8,0.1-1.1
			c2,0.4,4,3.3,5.1,5.5L178.6,38.4z"/>
		<path class="st2" d="M165.7,34.5l8.4,0.9h0.1c0.5,0,0.9-0.4,1-0.9c0.1-0.5-0.3-1-0.9-1.1c0,0,0,0,0,0l-8.4-0.9
			c-0.5-0.1-1,0.3-1.1,0.9c0,0,0,0,0,0C164.8,33.9,165.2,34.4,165.7,34.5z"/>
		<path class="st2" d="M175.2,52c-1.3,0.2-3.4,0.6-5.8,1l0.6-5.5c1.1,0.3,2.1,0.4,3.2,0.5c0.5,0,1.1-0.1,1.6-0.2
			c0.5-0.2,0.8-0.8,0.6-1.3c-0.2-0.5-0.8-0.8-1.3-0.6c-1.3,0.2-2.6,0.1-3.9-0.4l0.5-4.5c0.1-0.5-0.3-1-0.9-1.1c0,0,0,0,0,0
			c-0.5-0.1-1,0.3-1.1,0.9l-1.3,12.6c-1.5,0.2-2.9,0.4-4.2,0.6l0.9-8.5c0.8,0.2,1.7,0.2,2.6-0.1c0.5-0.2,0.8-0.8,0.6-1.3
			c-0.2-0.5-0.8-0.8-1.3-0.6c0,0,0,0,0,0c-0.7,0.2-1.5,0.1-2.2-0.2c-0.3-0.2-0.7-0.2-1,0c-0.3,0.1-0.5,0.4-0.6,0.8l-1.1,10.2
			c-0.7,0.1-1.4,0.1-2.1,0.1c-0.5-0.1-1,0.3-1.1,0.9c0,0,0,0,0,0c-0.1,0.5,0.4,1,0.9,1.1c0.2,0,0.5,0,0.7,0c4,0,15.5-2.1,16-2.2
			c0.6-0.1,0.9-0.6,0.8-1.2S175.7,51.9,175.2,52L175.2,52z"/>
	</g>
</g>
</svg>
