<svg id="Capa_1" data-name="Capa 1" xmlns="http://www.w3.org/2000/svg" xmlns:xlink="http://www.w3.org/1999/xlink" viewBox="0 0 72 72"><defs><style>.cls-1,.cls-4{fill:none;}.cls-1{clip-rule:evenodd;}.cls-2{fill:#ffe075;}.cls-3{clip-path:url(#clip-path);}.cls-4{stroke:#937200;stroke-linecap:round;stroke-linejoin:round;stroke-width:2px;}</style><clipPath id="clip-path"><path class="cls-1" d="M24.93,127.77C7.55,143.6-4.43,155.33,1.56,181.86s21.55,26.53,72.82,26.53,122.62,6.18,134.07-5.67,19.51-58.82,3.81-66.88S42.32,111.94,24.93,127.77Z"/></clipPath></defs><title>Iconos_STROKE_V2</title><path class="cls-2" d="M7.12,15.5A35.63,35.63,0,0,0,1.64,36.63C2.87,61.88,12.29,70.5,35.5,70.5c25,0,35-14,35-36s-4-33-33-33C21,1.5,12,8,7.12,15.5Z"/><path class="cls-4" d="M56,49H19a2,2,0,0,0-2,2h0a2,2,0,0,0,2,2H56a2,2,0,0,0,2-2h0A2,2,0,0,0,56,49Z"/><polyline class="cls-4" points="21 36 21 49 54 49 54 26 32 26"/><rect class="cls-4" x="16" y="21" width="16" height="15" rx="2"/><path class="cls-4" d="M45,35.5a2.5,2.5,0,0,1-5,0"/><path class="cls-4" d="M37,45h0c0-2.2,1.36-4,3-4h5c1.66,0,3,1.8,3,4h0"/><circle class="cls-4" cx="24" cy="27" r="2"/><path class="cls-4" d="M19,36h0c0-2.2,1.24-4,2.75-4h4.5C27.76,32,29,33.8,29,36h0"/><line class="cls-4" x1="33" y1="16" x2="33" y2="13"/><line class="cls-4" x1="36" y1="18" x2="38" y2="16"/><line class="cls-4" x1="38" y1="21" x2="41" y2="21"/><rect class="cls-4" x="40" y="31" width="5" height="3"/><line class="cls-4" x1="39" y1="31" x2="46" y2="31"/><line class="cls-4" x1="37" y1="48" x2="37" y2="45"/><line class="cls-4" x1="48" y1="48" x2="48" y2="45"/></svg>